<?xml version="1.0" encoding="UTF-8"?>
<svg id="b" data-name="Layer 2" xmlns="http://www.w3.org/2000/svg" viewBox="0 0 674.39 111.72">
  <g id="c" data-name="Layer 1">
    <g>
      <g>
        <path d="M71.05,41.85c7.51,5.18,11.27,13.09,11.27,23.73h-27.02c0-8.4-4.57-12.6-13.72-12.6s-13.72,5.27-13.72,15.82v7.98c0,10.45,4.76,15.68,14.28,15.68s14.28-4.29,14.28-12.88h25.9c0,10.73-3.76,18.71-11.27,23.94-7.51,5.23-17.34,7.84-29.47,7.84-12.97,0-23.15-3.27-30.52-9.8C3.69,95.02,0,85.41,0,72.72s3.69-22.31,11.06-28.84c7.37-6.53,17.55-9.8,30.52-9.8,12.13,0,21.96,2.59,29.47,7.77Z"></path>
        <path d="M87.08,109.68V8.18h27.86v101.5h-27.86Z"></path>
        <path d="M126.7,27.08V8.18h27.86v18.9h-27.86ZM126.7,109.68V35.76h27.86v73.92h-27.86Z"></path>
        <path d="M234.57,43.6c7.14,6.35,10.71,16.05,10.71,29.12v4.76h-55.44c0,5.32,1.19,9.33,3.57,12.04,2.38,2.71,6.14,4.06,11.27,4.06,4.67,0,8.1-.98,10.29-2.94,2.19-1.96,3.29-4.57,3.29-7.84h27.02c0,8.96-3.41,15.96-10.22,21-6.81,5.04-16.75,7.56-29.82,7.56-13.72,0-24.36-3.2-31.92-9.59-7.56-6.39-11.34-16.08-11.34-29.05s3.69-22.31,11.06-28.84c7.37-6.53,17.55-9.8,30.52-9.8s23.87,3.17,31.01,9.52ZM189.98,64.32h27.16c0-3.83-1.1-6.86-3.29-9.1-2.19-2.24-5.25-3.36-9.17-3.36-8.77,0-13.67,4.15-14.7,12.46Z"></path>
        <path d="M322,41.22c4.29,4.76,6.44,11.62,6.44,20.58v47.88h-27.86v-44.52c0-3.17-.82-5.72-2.45-7.63-1.63-1.91-3.94-2.87-6.93-2.87-3.45,0-6.25,1.12-8.4,3.36-2.15,2.24-3.22,4.99-3.22,8.26v43.4h-27.86V35.76h22.82l1.82,11.2c2.89-3.92,6.7-7.05,11.41-9.38,4.71-2.33,9.68-3.5,14.91-3.5,8.59,0,15.03,2.38,19.32,7.14Z"></path>
        <path d="M387.38,35.76v18.9h-15.68v28.14c0,3.36.56,5.81,1.68,7.35,1.12,1.54,3.17,2.31,6.16,2.31h7.84v16.38c-2.24.75-5.13,1.35-8.68,1.82-3.55.47-6.63.7-9.24.7-8.21,0-14.54-1.49-18.97-4.48-4.43-2.99-6.65-8.07-6.65-15.26v-36.96h-10.36v-18.9h11.48l6.02-22.4h20.72v22.4h15.68Z"></path>
      </g>
      <g>
        <path d="M475.59,0v96.74c0,3.92.75,6.58,2.24,7.98,1.49,1.4,4.01,2.1,7.56,2.1v2.94c-1.87-.09-4.64-.21-8.33-.35-3.69-.14-7.4-.21-11.13-.21s-7.33.07-11.06.21c-3.73.14-6.53.26-8.4.35v-2.94c3.27,0,5.58-.7,6.93-2.1,1.35-1.4,2.03-4.06,2.03-7.98V15.12c0-2.43-.23-4.34-.7-5.74-.47-1.4-1.12-2.52-1.96-3.36-.93-1.03-2.19-1.82-3.78-2.38-1.59-.56-3.17-.84-4.76-.84-2.61,0-4.78.42-6.51,1.26-1.73.84-3.2,2.01-4.41,3.5-1.96,2.15-3.17,4.95-3.64,8.4-.47,3.45-.7,8.07-.7,13.86v7.7h14.7v2.8h-14.7v56.42c0,4.01.98,6.7,2.94,8.05,1.96,1.35,4.71,2.03,8.26,2.03v2.94c-2.15-.09-5.16-.21-9.03-.35-3.87-.14-7.82-.21-11.83-.21s-8.03.07-11.76.21c-3.73.14-6.58.26-8.54.35v-2.94c3.55,0,6.07-.7,7.56-2.1,1.49-1.4,2.24-4.06,2.24-7.98v-56.42h-10.36v-2.8h10.36c0-7.09.79-13.02,2.38-17.78,1.59-4.76,4.15-8.73,7.7-11.9,3.27-2.71,6.93-4.64,10.99-5.81,4.06-1.17,8.1-1.75,12.11-1.75,3.08,0,6.16.19,9.24.56,3.08.37,6.44.56,10.08.56,1.96,0,4.27-.14,6.93-.42,2.66-.28,5.11-.61,7.35-.98Z"></path>
        <path d="M526.27,35.42c6.81,0,12.79,1.26,17.92,3.78,5.13,2.52,9.15,6.58,12.04,12.18,2.89,5.6,4.34,13.02,4.34,22.26s-1.45,16.64-4.34,22.19c-2.89,5.55-6.91,9.59-12.04,12.11-5.13,2.52-11.11,3.78-17.92,3.78s-12.53-1.26-17.71-3.78c-5.18-2.52-9.24-6.56-12.18-12.11-2.94-5.55-4.41-12.95-4.41-22.19s1.47-16.66,4.41-22.26c2.94-5.6,7-9.66,12.18-12.18,5.18-2.52,11.08-3.78,17.71-3.78ZM526.27,38.22c-3.73,0-6.86,2.78-9.38,8.33-2.52,5.55-3.78,14.58-3.78,27.09s1.26,21.51,3.78,27.02c2.52,5.51,5.65,8.26,9.38,8.26s6.98-2.75,9.45-8.26c2.47-5.51,3.71-14.51,3.71-27.02s-1.24-21.54-3.71-27.09c-2.47-5.55-5.62-8.33-9.45-8.33Z"></path>
        <path d="M601.31,37.38v2.94c-2.05,0-3.85.12-5.39.35-1.54.23-2.57.91-3.08,2.03-.51,1.12-.35,2.94.49,5.46l13.3,41.58-1.82,1.96,16.38-54.46,2.8,1.26-21.42,71.54c-1.49-.09-2.99-.14-4.48-.14s-3.03.05-4.62.14l-22.12-61.88c-1.31-3.73-2.73-5.97-4.27-6.72-1.54-.75-2.82-1.12-3.85-1.12v-2.94c2.99.28,6.09.49,9.31.63s6.74.21,10.57.21c2.89,0,5.95-.09,9.17-.28,3.22-.19,6.23-.37,9.03-.56ZM674.39,37.38v2.8c-1.77.47-3.45,1.54-5.04,3.22-1.59,1.68-3.08,4.62-4.48,8.82l-18.62,57.82c-1.49-.09-3.01-.14-4.55-.14s-3.06.05-4.55.14l-19.74-53.9,3.78-18.9c1.68.09,3.38.12,5.11.07,1.73-.05,3.43-.07,5.11-.07l19.18,56.56-1.54-1.54,9.38-29.68c1.59-5.13,2.19-9.29,1.82-12.46-.37-3.17-1.49-5.55-3.36-7.14-1.87-1.59-4.39-2.52-7.56-2.8v-2.8c1.49.09,3.1.16,4.83.21,1.73.05,3.45.09,5.18.14,1.73.05,3.2.07,4.41.07,1.87,0,3.8-.05,5.81-.14,2.01-.09,3.62-.19,4.83-.28Z"></path>
      </g>
    </g>
  </g>
</svg>